<svg 
 xmlns="http://www.w3.org/2000/svg"
 xmlns:xlink="http://www.w3.org/1999/xlink"
 width="20px" height="20px">
<path fill-rule="evenodd"  fill="rgb(0, 0, 0)"
 d="M0.000,0.000 L0.000,20.000 L3.000,20.000 L3.000,19.000 L5.000,19.000 L5.000,18.000 L7.000,18.000 L7.000,17.000 L8.000,17.000 L8.000,16.000 L10.000,16.000 L10.000,15.000 L12.000,15.000 L12.000,14.000 L14.000,14.000 L14.000,13.000 L16.000,13.000 L16.000,12.000 L18.000,12.000 L18.000,11.000 L20.000,11.000 L20.000,10.000 L20.000,9.000 L18.000,9.000 L18.000,8.000 L16.000,8.000 L16.000,7.000 L14.000,7.000 L14.000,6.000 L12.000,6.000 L12.000,5.000 L10.000,5.000 L10.000,4.000 L8.000,4.000 L8.000,3.000 L7.000,3.000 L7.000,2.000 L5.000,2.000 L5.000,1.000 L3.000,1.000 L3.000,0.000 L0.000,0.000 Z"/>
</svg>